<svg xmlns="http://www.w3.org/2000/svg" xmlns:xlink="http://www.w3.org/1999/xlink" contentStyleType="text/css" data-diagram-type="DESCRIPTION" height="1105px" preserveAspectRatio="none" style="width:454px;height:1105px;background:#FFFFFF;" version="1.1" viewBox="0 0 454 1105" width="454px" zoomAndPan="magnify"><title>**Banking Management System**</title><defs/><g><g class="title" data-source-line="13"><text fill="#000000" font-family="sans-serif" font-size="14" font-weight="bold" lengthAdjust="spacing" textLength="235.2998" x="102.3501" y="22.9951">Banking Management System</text></g><!--cluster Banking System--><g class="cluster" data-entity="Banking System" data-source-line="21" data-uid="ent0004" id="cluster_Banking System"><rect fill="none" height="1055" rx="2.5" ry="2.5" style="stroke:#181818;stroke-width:1;" width="235" x="213" y="44.2969"/><text fill="#000000" font-family="sans-serif" font-size="14" font-weight="bold" lengthAdjust="spacing" textLength="127.374" x="266.813" y="59.292">Banking System</text></g><!--entity UC1--><g class="entity" data-entity="UC1" data-source-line="24" data-uid="ent0005" id="entity_UC1"><ellipse cx="330.4069" cy="560.4783" fill="#E1F5FE" rx="71.4069" ry="16.6814" style="stroke:#2C3E50;stroke-width:0.5;"/><text fill="#000000" font-family="sans-serif" font-size="14" lengthAdjust="spacing" textLength="109.9014" x="275.4562" y="565.1267">Register / Login</text></g><!--entity UC2--><g class="entity" data-entity="UC2" data-source-line="25" data-uid="ent0006" id="entity_UC2"><ellipse cx="330.6956" cy="697.336" fill="#E1F5FE" rx="78.1956" ry="18.0391" style="stroke:#2C3E50;stroke-width:0.5;"/><text fill="#000000" font-family="sans-serif" font-size="14" lengthAdjust="spacing" textLength="126.4033" x="267.4939" y="701.9844">Setup / Verify 2FA</text></g><!--entity UC3--><g class="entity" data-entity="UC3" data-source-line="28" data-uid="ent0007" id="entity_UC3"><ellipse cx="330.4128" cy="852.4794" fill="#E1F5FE" rx="93.9128" ry="21.1826" style="stroke:#2C3E50;stroke-width:0.5;"/><text fill="#000000" font-family="sans-serif" font-size="14" lengthAdjust="spacing" textLength="162.5449" x="249.1403" y="857.1279">Create Account (Stash)</text></g><!--entity UC4--><g class="entity" data-entity="UC4" data-source-line="29" data-uid="ent0008" id="entity_UC4"><ellipse cx="330.7459" cy="102.3461" fill="#E1F5FE" rx="100.7459" ry="22.5492" style="stroke:#2C3E50;stroke-width:0.5;"/><text fill="#000000" font-family="sans-serif" font-size="14" lengthAdjust="spacing" textLength="177.7002" x="241.8958" y="106.9945">View Accounts &amp; Balance</text></g><!--entity UC5--><g class="entity" data-entity="UC5" data-source-line="30" data-uid="ent0009" id="entity_UC5"><ellipse cx="330.7416" cy="182.5452" fill="#E1F5FE" rx="99.2416" ry="22.2483" style="stroke:#2C3E50;stroke-width:0.5;"/><text fill="#000000" font-family="sans-serif" font-size="14" lengthAdjust="spacing" textLength="174.3848" x="243.5492" y="187.1936">View Transaction History</text></g><!--entity UC6--><g class="entity" data-entity="UC6" data-source-line="33" data-uid="ent0010" id="entity_UC6"><ellipse cx="330.6532" cy="256.1275" fill="#E1F5FE" rx="72.1532" ry="16.8306" style="stroke:#2C3E50;stroke-width:0.5;"/><text fill="#000000" font-family="sans-serif" font-size="14" lengthAdjust="spacing" textLength="111.7539" x="274.7762" y="260.7759">Initiate Transfer</text></g><!--entity UC7--><g class="entity" data-entity="UC7" data-source-line="34" data-uid="ent0011" id="entity_UC7"><ellipse cx="330.6851" cy="773.5339" fill="#E1F5FE" rx="101.6851" ry="22.737" style="stroke:#2C3E50;stroke-width:0.5;"/><text fill="#000000" font-family="sans-serif" font-size="14" lengthAdjust="spacing" textLength="179.7646" x="240.8028" y="778.1823">Accept Incoming Transfer</text></g><!--entity UC8--><g class="entity" data-entity="UC8" data-source-line="35" data-uid="ent0012" id="entity_UC8"><ellipse cx="330.3985" cy="331.1766" fill="#E1F5FE" rx="99.8985" ry="22.3797" style="stroke:#2C3E50;stroke-width:0.5;"/><text fill="#000000" font-family="sans-serif" font-size="14" lengthAdjust="spacing" textLength="175.834" x="242.4815" y="335.825">Reject Incoming Transfer</text></g><!--entity UC9--><g class="entity" data-entity="UC9" data-source-line="38" data-uid="ent0013" id="entity_UC9"><ellipse cx="330.4873" cy="997.4943" fill="#E1F5FE" rx="86.4873" ry="19.6975" style="stroke:#2C3E50;stroke-width:0.5;"/><text fill="#000000" font-family="sans-serif" font-size="14" lengthAdjust="spacing" textLength="145.7422" x="257.6162" y="1002.1428">Deposit Funds (Loot)</text></g><!--entity UC10--><g class="entity" data-entity="UC10" data-source-line="39" data-uid="ent0014" id="entity_UC10"><ellipse cx="330.7372" cy="925.2443" fill="#E1F5FE" rx="72.7372" ry="16.9474" style="stroke:#2C3E50;stroke-width:0.5;"/><text fill="#000000" font-family="sans-serif" font-size="14" lengthAdjust="spacing" textLength="113.1963" x="274.139" y="929.8928">Withdraw Funds</text></g><!--entity UC11--><g class="entity" data-entity="UC11" data-source-line="42" data-uid="ent0015" id="entity_UC11"><ellipse cx="330.6313" cy="411.3231" fill="#E1F5FE" rx="98.1313" ry="22.0263" style="stroke:#2C3E50;stroke-width:0.5;"/><text fill="#000000" font-family="sans-serif" font-size="14" lengthAdjust="spacing" textLength="171.9307" x="244.666" y="415.9716">Upload Document (OCR)</text></g><!--entity UC12--><g class="entity" data-entity="UC12" data-source-line="43" data-uid="ent0016" id="entity_UC12"><ellipse cx="330.3359" cy="488.164" fill="#E1F5FE" rx="87.3359" ry="19.8672" style="stroke:#2C3E50;stroke-width:0.5;"/><text fill="#000000" font-family="sans-serif" font-size="14" lengthAdjust="spacing" textLength="147.6836" x="256.4941" y="492.8125">Manage Notifications</text></g><!--entity UC14--><g class="entity" data-entity="UC14" data-source-line="44" data-uid="ent0017" id="entity_UC14"><ellipse cx="330.3475" cy="628.3664" fill="#E1F5FE" rx="68.3475" ry="16.0695" style="stroke:#2C3E50;stroke-width:0.5;"/><text fill="#000000" font-family="sans-serif" font-size="14" lengthAdjust="spacing" textLength="102.1836" x="279.2557" y="633.0148">View ATM Map</text></g><!--entity UC13--><g class="entity" data-entity="UC13" data-source-line="47" data-uid="ent0018" id="entity_UC13"><ellipse cx="330.5573" cy="1067.5083" fill="#E1F5FE" rx="66.5573" ry="15.7115" style="stroke:#2C3E50;stroke-width:0.5;"/><text fill="#000000" font-family="sans-serif" font-size="14" lengthAdjust="spacing" textLength="97.5625" x="281.7761" y="1072.1568">Manage ATMs</text></g><!--entity U--><g class="entity" data-entity="U" data-source-line="18" data-uid="ent0002" id="entity_U"><ellipse cx="28.4551" cy="528.7969" fill="#FFFFFF" rx="8" ry="8" style="stroke:#2C3E50;stroke-width:0.5;"/><path d="M28.4551,536.7969 L28.4551,563.7969 M15.4551,544.7969 L41.4551,544.7969 M28.4551,563.7969 L15.4551,578.7969 M28.4551,563.7969 L41.4551,578.7969" fill="none" style="stroke:#2C3E50;stroke-width:0.5;"/><text fill="#000000" font-family="sans-serif" font-size="14" lengthAdjust="spacing" textLength="31.9102" x="12.5" y="593.292">User</text></g><!--entity A--><g class="entity" data-entity="A" data-source-line="19" data-uid="ent0003" id="entity_A"><ellipse cx="28.4321" cy="912.7969" fill="#FFFFFF" rx="8" ry="8" style="stroke:#2C3E50;stroke-width:0.5;"/><path d="M28.4321,920.7969 L28.4321,947.7969 M15.4321,928.7969 L41.4321,928.7969 M28.4321,947.7969 L15.4321,962.7969 M28.4321,947.7969 L41.4321,962.7969" fill="none" style="stroke:#2C3E50;stroke-width:0.5;"/><text fill="#000000" font-family="sans-serif" font-size="14" lengthAdjust="spacing" textLength="44.8643" x="6" y="977.292">Admin</text></g><!--link U to UC1--><g class="link" data-entity-1="U" data-entity-2="UC1" data-source-line="51" data-uid="lnk19" id="link_U_UC1"><path d="M44.79,558.3969 C83.6,558.6569 181.8501,559.3171 252.8301,559.7871" fill="none" id="U-to-UC1" style="stroke:#2C3E50;stroke-width:1;"/><polygon fill="#2C3E50" points="258.83,559.8269,249.8567,555.7674,253.8301,559.7938,249.8037,563.7672,258.83,559.8269" style="stroke:#2C3E50;stroke-width:1;"/></g><!--link U to UC2--><g class="link" data-entity-1="U" data-entity-2="UC2" data-source-line="52" data-uid="lnk20" id="link_U_UC2"><path d="M44.73,574.1169 C54.48,583.6669 67.76,595.6269 81,604.2969 C142.07,644.3069 216.9842,668.8749 269.6042,682.9649" fill="none" id="U-to-UC2" style="stroke:#2C3E50;stroke-width:1;"/><polygon fill="#2C3E50" points="275.4,684.5169,267.7409,678.3251,270.5702,683.2236,265.6716,686.0528,275.4,684.5169" style="stroke:#2C3E50;stroke-width:1;"/></g><!--link U to UC3--><g class="link" data-entity-1="U" data-entity-2="UC3" data-source-line="53" data-uid="lnk21" id="link_U_UC3"><path d="M32.72,596.5069 C38.59,656.8669 53.09,770.3069 81,798.2969 C103.84,821.1969 175.9697,834.7961 238.5797,842.9061" fill="none" id="U-to-UC3" style="stroke:#2C3E50;stroke-width:1;"/><polygon fill="#2C3E50" points="244.53,843.6769,236.1184,838.5539,239.5714,843.0346,235.0907,846.4876,244.53,843.6769" style="stroke:#2C3E50;stroke-width:1;"/></g><!--link U to UC4--><g class="link" data-entity-1="U" data-entity-2="UC4" data-source-line="54" data-uid="lnk22" id="link_U_UC4"><path d="M32.31,520.1569 C38.25,446.7469 53.85,288.9669 81,242.2969 C119.84,175.5269 197.9046,139.973 257.4346,120.953" fill="none" id="U-to-UC4" style="stroke:#2C3E50;stroke-width:1;"/><polygon fill="#2C3E50" points="263.15,119.1269,253.3596,118.0557,258.3872,120.6486,255.7943,125.6762,263.15,119.1269" style="stroke:#2C3E50;stroke-width:1;"/></g><!--link U to UC5--><g class="link" data-entity-1="U" data-entity-2="UC5" data-source-line="55" data-uid="lnk23" id="link_U_UC5"><path d="M29.18,519.9769 C30.48,468.4969 39.12,376.0269 81,311.2969 C121.33,248.9569 196.2533,216.7782 254.7633,199.5882" fill="none" id="U-to-UC5" style="stroke:#2C3E50;stroke-width:1;"/><polygon fill="#2C3E50" points="260.52,197.8969,250.7574,196.596,255.7228,199.3063,253.0125,204.2716,260.52,197.8969" style="stroke:#2C3E50;stroke-width:1;"/></g><!--link U to UC6--><g class="link" data-entity-1="U" data-entity-2="UC6" data-source-line="56" data-uid="lnk24" id="link_U_UC6"><path d="M32.97,519.9369 C38.1,481.1269 50.64,420.9269 81,378.2969 C126.93,313.7969 210.8412,283.2501 268.9812,268.6301" fill="none" id="U-to-UC6" style="stroke:#2C3E50;stroke-width:1;"/><polygon fill="#2C3E50" points="274.8,267.1669,265.0962,265.4825,269.951,268.3862,267.0472,273.2409,274.8,267.1669" style="stroke:#2C3E50;stroke-width:1;"/></g><!--link U to UC7--><g class="link" data-entity-1="U" data-entity-2="UC7" data-source-line="57" data-uid="lnk25" id="link_U_UC7"><path d="M40.89,596.3369 C49.14,618.8169 62.19,646.6369 81,666.2969 C127.92,715.3369 195.2599,741.5336 250.0599,756.4236" fill="none" id="U-to-UC7" style="stroke:#2C3E50;stroke-width:1;"/><polygon fill="#2C3E50" points="255.85,757.9969,248.2137,751.777,251.0249,756.6858,246.1161,759.497,255.85,757.9969" style="stroke:#2C3E50;stroke-width:1;"/></g><!--link U to UC8--><g class="link" data-entity-1="U" data-entity-2="UC8" data-source-line="58" data-uid="lnk26" id="link_U_UC8"><path d="M39.4,520.2969 C47.38,495.5269 60.67,463.7569 81,441.2969 C127.15,390.3169 195.5137,363.3239 250.8237,348.1539" fill="none" id="U-to-UC8" style="stroke:#2C3E50;stroke-width:1;"/><polygon fill="#2C3E50" points="256.61,346.5669,246.8725,345.0899,251.7881,347.8894,248.9886,352.8049,256.61,346.5669" style="stroke:#2C3E50;stroke-width:1;"/></g><!--link U to UC9--><g class="link" data-entity-1="U" data-entity-2="UC9" data-source-line="59" data-uid="lnk27" id="link_U_UC9"><path d="M30.91,596.5569 C34.45,672.2269 46.06,837.3869 81,880.2969 C115.82,923.0569 160.79,882.7169 197,924.2969 C207.48,936.3269 194.13,947.6169 205,959.2969 C218.09,973.3569 230.4742,980.5059 248.8442,986.1459" fill="none" id="U-to-UC9" style="stroke:#2C3E50;stroke-width:1;"/><polygon fill="#2C3E50" points="254.58,987.9069,247.1504,981.4415,249.8002,986.4394,244.8024,989.0892,254.58,987.9069" style="stroke:#2C3E50;stroke-width:1;"/></g><!--link U to UC10--><g class="link" data-entity-1="U" data-entity-2="UC10" data-source-line="60" data-uid="lnk28" id="link_U_UC10"><path d="M31.91,596.4069 C36.93,664.3969 50.68,802.9069 81,839.2969 C116.3,881.6569 149.73,854.9169 197,883.2969 C201.05,885.7269 200.85,888.0469 205,890.2969 C225.83,901.5769 244.8046,908.0698 266.7746,913.4898" fill="none" id="U-to-UC10" style="stroke:#2C3E50;stroke-width:1;"/><polygon fill="#2C3E50" points="272.6,914.9269,264.8201,908.8876,267.7455,913.7293,262.9039,916.6548,272.6,914.9269" style="stroke:#2C3E50;stroke-width:1;"/></g><!--link U to UC11--><g class="link" data-entity-1="U" data-entity-2="UC11" data-source-line="61" data-uid="lnk29" id="link_U_UC11"><path d="M44.52,533.5869 C53.64,520.3569 66.34,504.6969 81,494.2969 C132.29,457.9069 194.8007,437.9533 246.8407,426.0633" fill="none" id="U-to-UC11" style="stroke:#2C3E50;stroke-width:1;"/><polygon fill="#2C3E50" points="252.69,424.7269,243.0251,422.832,247.8156,425.8406,244.807,430.631,252.69,424.7269" style="stroke:#2C3E50;stroke-width:1;"/></g><!--link U to UC12--><g class="link" data-entity-1="U" data-entity-2="UC12" data-source-line="62" data-uid="lnk30" id="link_U_UC12"><path d="M44.81,549.4869 C54.82,544.0869 68.34,537.4269 81,533.2969 C136.54,515.1669 195.6457,504.5328 245.2557,497.7228" fill="none" id="U-to-UC12" style="stroke:#2C3E50;stroke-width:1;"/><polygon fill="#2C3E50" points="251.2,496.9069,241.7396,494.168,246.2465,497.5869,242.8276,502.0937,251.2,496.9069" style="stroke:#2C3E50;stroke-width:1;"/></g><!--link U to UC14--><g class="link" data-entity-1="U" data-entity-2="UC14" data-source-line="63" data-uid="lnk31" id="link_U_UC14"><path d="M44.79,561.8669 C87.95,571.9369 206.257,599.5434 275.507,615.7034" fill="none" id="U-to-UC14" style="stroke:#2C3E50;stroke-width:1;"/><polygon fill="#2C3E50" points="281.35,617.0669,273.4945,611.1263,276.4808,615.9306,271.6765,618.917,281.35,617.0669" style="stroke:#2C3E50;stroke-width:1;"/></g><!--link A to UC13--><g class="link" data-entity-1="A" data-entity-2="UC13" data-source-line="66" data-uid="lnk32" id="link_A_UC13"><path d="M51,968.7469 C59.54,977.8769 69.96,987.5069 81,994.2969 C140.86,1031.0869 214.3105,1049.1286 267.0705,1058.3986" fill="none" id="A-to-UC13" style="stroke:#2C3E50;stroke-width:1;"/><polygon fill="#2C3E50" points="272.98,1059.4369,264.808,1053.9398,268.0554,1058.5716,263.4236,1061.8191,272.98,1059.4369" style="stroke:#2C3E50;stroke-width:1;"/></g><!--link A to UC14--><g class="link" data-entity-1="A" data-entity-2="UC14" data-source-line="67" data-uid="lnk33" id="link_A_UC14"><path d="M38.08,904.2269 C46.15,873.1569 60.14,828.8969 81,794.2969 C122.73,725.0869 135.67,702.8269 205,661.2969 C225.14,649.2269 243.8439,642.813 265.8139,637.913" fill="none" id="A-to-UC14" style="stroke:#2C3E50;stroke-width:1;"/><polygon fill="#2C3E50" points="271.67,636.6069,262.0151,634.6619,266.7899,637.6953,263.7566,642.4701,271.67,636.6069" style="stroke:#2C3E50;stroke-width:1;"/></g><!--link A to UC9--><g class="link" data-entity-1="A" data-entity-2="UC9" data-source-line="70" data-uid="lnk34" id="link_A_UC9"><path d="M51.08,953.0669 C60.13,957.1669 70.87,961.5169 81,964.2969 C135.24,979.1869 192.0856,986.9034 240.9856,991.4334" fill="none" id="A-to-UC9" style="stroke:#2C3E50;stroke-width:1;stroke-dasharray:7,7;"/><polygon fill="#2C3E50" points="246.96,991.9869,238.3673,987.1737,241.9813,991.5257,237.6294,995.1396,246.96,991.9869" style="stroke:#2C3E50;stroke-width:1;"/><text fill="#000000" font-family="sans-serif" font-size="13" lengthAdjust="spacing" textLength="114.9307" x="82" y="960.3638">Permission Check</text></g><!--link A to UC10--><g class="link" data-entity-1="A" data-entity-2="UC10" data-source-line="71" data-uid="lnk35" id="link_A_UC10"><path d="M51.08,941.0769 C94.13,938.6369 186.3996,933.406 253.8696,929.586" fill="none" id="A-to-UC10" style="stroke:#2C3E50;stroke-width:1;stroke-dasharray:7,7;"/><polygon fill="#2C3E50" points="259.86,929.2469,250.6483,925.762,254.868,929.5295,251.1005,933.7492,259.86,929.2469" style="stroke:#2C3E50;stroke-width:1;"/><text fill="#000000" font-family="sans-serif" font-size="13" lengthAdjust="spacing" textLength="114.9307" x="82" y="929.3638">Permission Check</text></g><!--link A to UC7--><g class="link" data-entity-1="A" data-entity-2="UC7" data-source-line="72" data-uid="lnk36" id="link_A_UC7"><path d="M51.22,922.6669 C82.94,894.8969 144.72,844.0969 205,813.2969 C223.2,803.9969 238.2567,798.098 257.5767,792.018" fill="none" id="A-to-UC7" style="stroke:#2C3E50;stroke-width:1;stroke-dasharray:7,7;"/><polygon fill="#2C3E50" points="263.3,790.2169,253.5143,789.103,258.5306,791.7178,255.9158,796.7341,263.3,790.2169" style="stroke:#2C3E50;stroke-width:1;"/><text fill="#000000" font-family="sans-serif" font-size="13" lengthAdjust="spacing" textLength="114.9307" x="82" y="815.3638">Permission Check</text></g><!--SRC=[VLJRRgCm47tdAqPPQPj6QZVNNlPX9Kf0HKgWuj9L7xt68Tua6DcEegZglwynbmGsBGzeD7DypipnWDZGB4SSxU0FmfkKitsMM6pBE1pML193DFLSrL5AGddS4k04IvIbstF0NX2C185t0zJprA7xPe-ScMENDSOJmgly64_8RAZp9kViq4v_d0aWB5Nb_KkA_sGTnr4aXgHIjJqOFA5CyQMmH9aQPaSo2U5HIB8R30nZIrOI90DEqxM4X1PJKfOPnXMOLkG78VH3IV4679hkEH7NHjbIBnQ4zm09YEkCcUnefbEcOLJMGQzMBoLxrIpwfIJYwDds8jSo8zVtTBAsj1UGbAeZ77x0WgKLSsoDsgYGo7sk8A-4qzKHnevPuSOj7SloOoy2_yKEj5JOPh4uGPA0YR6oKHOZ8x6-hfWcRUmh9OSQAU2xid-BCamgyFG2EE8e4qZx2izg9iQF5NfstkJIz-mtY0BJ2nqxw7JePbJIeaTDjggzj-xQCDKNoIMu6MQxmlKE-hvhyLzrtP-Y7ywxiypm-LF_vYHdWafmr18Aw2yOaxLxZstaRohN2KU74bhVwV1SAOxSXHkvTaSZphSC9J1dUAztkEzRGIqowcn5kUhWCKbN5AF2-KPhVEawewNwFF8QCctjpdpfUk1xYxUB6kfeGpqfFhih2En5QHBSG1pQWH73pSqllRjrD6wYIHDDcsZMH7TDTDz43qtqU68UdiAJokWaesRgTARdCiowFZc56bgEhUvxwOQXFjAVCob90WkQ5Vy14svlTHFm4ru8tr4XYWMtrWHlck9e-5Nr_aBn7m00]--></g></svg>